<?xml version="1.0" encoding="UTF-8" standalone="no"?><!DOCTYPE svg PUBLIC "-//W3C//DTD SVG 1.1//EN" "http://www.w3.org/Graphics/SVG/1.1/DTD/svg11.dtd"><!-- Generated by graphviz version 2.40.1 (20161225.0304)
 --><!-- Title: Tree Pages: 1 --><svg xmlns="http://www.w3.org/2000/svg" xmlns:xlink="http://www.w3.org/1999/xlink" width="1670pt" height="595pt" viewBox="0.00 0.00 1670.09 595.20">
<g id="graph0" class="graph" transform="scale(1 1) rotate(0) translate(4 591.2)">
<title>Tree</title>
<polygon fill="#ffffff" stroke="transparent" points="-4,4 -4,-591.2 1666.0862,-591.2 1666.0862,4 -4,4"/>
<!-- 0 -->
<g id="node1" class="node">
<title>0</title>
<path fill="#fefcfa" stroke="#000000" d="M936.7002,-587.2C936.7002,-587.2 815.3692,-587.2 815.3692,-587.2 809.3692,-587.2 803.3692,-581.2 803.3692,-575.2 803.3692,-575.2 803.3692,-507.2 803.3692,-507.2 803.3692,-501.2 809.3692,-495.2 815.3692,-495.2 815.3692,-495.2 936.7002,-495.2 936.7002,-495.2 942.7002,-495.2 948.7002,-501.2 948.7002,-507.2 948.7002,-507.2 948.7002,-575.2 948.7002,-575.2 948.7002,-581.2 942.7002,-587.2 936.7002,-587.2"/>
<text text-anchor="middle" x="876.0347" y="-570.6" font-family="Helvetica,sans-Serif" font-size="14.00" fill="#000000">sqft_living &lt;= 2005.0</text>
<text text-anchor="middle" x="876.0347" y="-553.8" font-family="Helvetica,sans-Serif" font-size="14.00" fill="#000000">gini = 0.5</text>
<text text-anchor="middle" x="876.0347" y="-537" font-family="Helvetica,sans-Serif" font-size="14.00" fill="#000000">samples = 300</text>
<text text-anchor="middle" x="876.0347" y="-520.2" font-family="Helvetica,sans-Serif" font-size="14.00" fill="#000000">value = [152, 148]</text>
<text text-anchor="middle" x="876.0347" y="-503.4" font-family="Helvetica,sans-Serif" font-size="14.00" fill="#000000">class = False</text>
</g>
<!-- 1 -->
<g id="node2" class="node">
<title>1</title>
<path fill="#66b3eb" stroke="#000000" d="M760.8112,-459.2C760.8112,-459.2 643.2582,-459.2 643.2582,-459.2 637.2582,-459.2 631.2582,-453.2 631.2582,-447.2 631.2582,-447.2 631.2582,-379.2 631.2582,-379.2 631.2582,-373.2 637.2582,-367.2 643.2582,-367.2 643.2582,-367.2 760.8112,-367.2 760.8112,-367.2 766.8112,-367.2 772.8112,-373.2 772.8112,-379.2 772.8112,-379.2 772.8112,-447.2 772.8112,-447.2 772.8112,-453.2 766.8112,-459.2 760.8112,-459.2"/>
<text text-anchor="middle" x="702.0347" y="-442.6" font-family="Helvetica,sans-Serif" font-size="14.00" fill="#000000">bathrooms &lt;= 1.875</text>
<text text-anchor="middle" x="702.0347" y="-425.8" font-family="Helvetica,sans-Serif" font-size="14.00" fill="#000000">gini = 0.303</text>
<text text-anchor="middle" x="702.0347" y="-409" font-family="Helvetica,sans-Serif" font-size="14.00" fill="#000000">samples = 86</text>
<text text-anchor="middle" x="702.0347" y="-392.2" font-family="Helvetica,sans-Serif" font-size="14.00" fill="#000000">value = [16, 70]</text>
<text text-anchor="middle" x="702.0347" y="-375.4" font-family="Helvetica,sans-Serif" font-size="14.00" fill="#000000">class = True</text>
</g>
<!-- 0&#45;&gt;1 -->
<g id="edge1" class="edge">
<title>0-&gt;1</title>
<path fill="none" stroke="#000000" d="M813.2167,-494.9891C800.1574,-485.3822 786.3084,-475.1944 772.9802,-465.3898"/>
<polygon fill="#000000" stroke="#000000" points="774.8897,-462.4495 764.7605,-459.3431 770.7417,-468.0881 774.8897,-462.4495"/>
<text text-anchor="middle" x="768.525" y="-479.858" font-family="Helvetica,sans-Serif" font-size="14.00" fill="#000000">True</text>
</g>
<!-- 16 -->
<g id="node17" class="node">
<title>16</title>
<path fill="#f4c9ab" stroke="#000000" d="M1118.9204,-459.2C1118.9204,-459.2 1023.149,-459.2 1023.149,-459.2 1017.149,-459.2 1011.149,-453.2 1011.149,-447.2 1011.149,-447.2 1011.149,-379.2 1011.149,-379.2 1011.149,-373.2 1017.149,-367.2 1023.149,-367.2 1023.149,-367.2 1118.9204,-367.2 1118.9204,-367.2 1124.9204,-367.2 1130.9204,-373.2 1130.9204,-379.2 1130.9204,-379.2 1130.9204,-447.2 1130.9204,-447.2 1130.9204,-453.2 1124.9204,-459.2 1118.9204,-459.2"/>
<text text-anchor="middle" x="1071.0347" y="-442.6" font-family="Helvetica,sans-Serif" font-size="14.00" fill="#000000">grade &lt;= 7.5</text>
<text text-anchor="middle" x="1071.0347" y="-425.8" font-family="Helvetica,sans-Serif" font-size="14.00" fill="#000000">gini = 0.463</text>
<text text-anchor="middle" x="1071.0347" y="-409" font-family="Helvetica,sans-Serif" font-size="14.00" fill="#000000">samples = 214</text>
<text text-anchor="middle" x="1071.0347" y="-392.2" font-family="Helvetica,sans-Serif" font-size="14.00" fill="#000000">value = [136, 78]</text>
<text text-anchor="middle" x="1071.0347" y="-375.4" font-family="Helvetica,sans-Serif" font-size="14.00" fill="#000000">class = False</text>
</g>
<!-- 0&#45;&gt;16 -->
<g id="edge16" class="edge">
<title>0-&gt;16</title>
<path fill="none" stroke="#000000" d="M946.1587,-495.1699C964.3625,-483.2207 983.9517,-470.3621 1002.0941,-458.4533"/>
<polygon fill="#000000" stroke="#000000" points="1004.4324,-461.1051 1010.8716,-452.6916 1000.5911,-455.2532 1004.4324,-461.1051"/>
<text text-anchor="middle" x="1005.794" y="-472.9706" font-family="Helvetica,sans-Serif" font-size="14.00" fill="#000000">False</text>
</g>
<!-- 2 -->
<g id="node3" class="node">
<title>2</title>
<path fill="#bddef6" stroke="#000000" d="M421.7002,-331.2C421.7002,-331.2 300.3692,-331.2 300.3692,-331.2 294.3692,-331.2 288.3692,-325.2 288.3692,-319.2 288.3692,-319.2 288.3692,-251.2 288.3692,-251.2 288.3692,-245.2 294.3692,-239.2 300.3692,-239.2 300.3692,-239.2 421.7002,-239.2 421.7002,-239.2 427.7002,-239.2 433.7002,-245.2 433.7002,-251.2 433.7002,-251.2 433.7002,-319.2 433.7002,-319.2 433.7002,-325.2 427.7002,-331.2 421.7002,-331.2"/>
<text text-anchor="middle" x="361.0347" y="-314.6" font-family="Helvetica,sans-Serif" font-size="14.00" fill="#000000">sqft_living &lt;= 1395.0</text>
<text text-anchor="middle" x="361.0347" y="-297.8" font-family="Helvetica,sans-Serif" font-size="14.00" fill="#000000">gini = 0.48</text>
<text text-anchor="middle" x="361.0347" y="-281" font-family="Helvetica,sans-Serif" font-size="14.00" fill="#000000">samples = 35</text>
<text text-anchor="middle" x="361.0347" y="-264.2" font-family="Helvetica,sans-Serif" font-size="14.00" fill="#000000">value = [14, 21]</text>
<text text-anchor="middle" x="361.0347" y="-247.4" font-family="Helvetica,sans-Serif" font-size="14.00" fill="#000000">class = True</text>
</g>
<!-- 1&#45;&gt;2 -->
<g id="edge2" class="edge">
<title>1-&gt;2</title>
<path fill="none" stroke="#000000" d="M631.3793,-386.6783C576.5883,-366.1116 500.5574,-337.5722 443.0773,-315.9961"/>
<polygon fill="#000000" stroke="#000000" points="444.2491,-312.6975 433.6569,-312.4599 441.7891,-319.251 444.2491,-312.6975"/>
</g>
<!-- 9 -->
<g id="node10" class="node">
<title>9</title>
<path fill="#41a1e6" stroke="#000000" d="M750.8552,-331.2C750.8552,-331.2 653.2142,-331.2 653.2142,-331.2 647.2142,-331.2 641.2142,-325.2 641.2142,-319.2 641.2142,-319.2 641.2142,-251.2 641.2142,-251.2 641.2142,-245.2 647.2142,-239.2 653.2142,-239.2 653.2142,-239.2 750.8552,-239.2 750.8552,-239.2 756.8552,-239.2 762.8552,-245.2 762.8552,-251.2 762.8552,-251.2 762.8552,-319.2 762.8552,-319.2 762.8552,-325.2 756.8552,-331.2 750.8552,-331.2"/>
<text text-anchor="middle" x="702.0347" y="-314.6" font-family="Helvetica,sans-Serif" font-size="14.00" fill="#000000">bedrooms &lt;= 3.5</text>
<text text-anchor="middle" x="702.0347" y="-297.8" font-family="Helvetica,sans-Serif" font-size="14.00" fill="#000000">gini = 0.075</text>
<text text-anchor="middle" x="702.0347" y="-281" font-family="Helvetica,sans-Serif" font-size="14.00" fill="#000000">samples = 51</text>
<text text-anchor="middle" x="702.0347" y="-264.2" font-family="Helvetica,sans-Serif" font-size="14.00" fill="#000000">value = [2, 49]</text>
<text text-anchor="middle" x="702.0347" y="-247.4" font-family="Helvetica,sans-Serif" font-size="14.00" fill="#000000">class = True</text>
</g>
<!-- 1&#45;&gt;9 -->
<g id="edge9" class="edge">
<title>1-&gt;9</title>
<path fill="none" stroke="#000000" d="M702.0347,-366.9891C702.0347,-358.7417 702.0347,-350.0661 702.0347,-341.5724"/>
<polygon fill="#000000" stroke="#000000" points="705.5348,-341.3431 702.0347,-331.3431 698.5348,-341.3431 705.5348,-341.3431"/>
</g>
<!-- 3 -->
<g id="node4" class="node">
<title>3</title>
<path fill="#45a3e7" stroke="#000000" d="M220.0949,-203.2C220.0949,-203.2 115.9745,-203.2 115.9745,-203.2 109.9745,-203.2 103.9745,-197.2 103.9745,-191.2 103.9745,-191.2 103.9745,-123.2 103.9745,-123.2 103.9745,-117.2 109.9745,-111.2 115.9745,-111.2 115.9745,-111.2 220.0949,-111.2 220.0949,-111.2 226.0949,-111.2 232.0949,-117.2 232.0949,-123.2 232.0949,-123.2 232.0949,-191.2 232.0949,-191.2 232.0949,-197.2 226.0949,-203.2 220.0949,-203.2"/>
<text text-anchor="middle" x="168.0347" y="-186.6" font-family="Helvetica,sans-Serif" font-size="14.00" fill="#000000">sqft_lot &lt;= 5766.0</text>
<text text-anchor="middle" x="168.0347" y="-169.8" font-family="Helvetica,sans-Serif" font-size="14.00" fill="#000000">gini = 0.105</text>
<text text-anchor="middle" x="168.0347" y="-153" font-family="Helvetica,sans-Serif" font-size="14.00" fill="#000000">samples = 18</text>
<text text-anchor="middle" x="168.0347" y="-136.2" font-family="Helvetica,sans-Serif" font-size="14.00" fill="#000000">value = [1, 17]</text>
<text text-anchor="middle" x="168.0347" y="-119.4" font-family="Helvetica,sans-Serif" font-size="14.00" fill="#000000">class = True</text>
</g>
<!-- 2&#45;&gt;3 -->
<g id="edge3" class="edge">
<title>2-&gt;3</title>
<path fill="none" stroke="#000000" d="M291.6299,-239.1699C275.1571,-228.2449 257.5379,-216.5596 240.915,-205.5351"/>
<polygon fill="#000000" stroke="#000000" points="242.5927,-202.4481 232.3245,-199.8378 238.7238,-208.2817 242.5927,-202.4481"/>
</g>
<!-- 6 -->
<g id="node7" class="node">
<title>6</title>
<path fill="#eda876" stroke="#000000" d="M413.3664,-203.2C413.3664,-203.2 308.703,-203.2 308.703,-203.2 302.703,-203.2 296.703,-197.2 296.703,-191.2 296.703,-191.2 296.703,-123.2 296.703,-123.2 296.703,-117.2 302.703,-111.2 308.703,-111.2 308.703,-111.2 413.3664,-111.2 413.3664,-111.2 419.3664,-111.2 425.3664,-117.2 425.3664,-123.2 425.3664,-123.2 425.3664,-191.2 425.3664,-191.2 425.3664,-197.2 419.3664,-203.2 413.3664,-203.2"/>
<text text-anchor="middle" x="361.0347" y="-186.6" font-family="Helvetica,sans-Serif" font-size="14.00" fill="#000000">price &lt;= 353000.0</text>
<text text-anchor="middle" x="361.0347" y="-169.8" font-family="Helvetica,sans-Serif" font-size="14.00" fill="#000000">gini = 0.36</text>
<text text-anchor="middle" x="361.0347" y="-153" font-family="Helvetica,sans-Serif" font-size="14.00" fill="#000000">samples = 17</text>
<text text-anchor="middle" x="361.0347" y="-136.2" font-family="Helvetica,sans-Serif" font-size="14.00" fill="#000000">value = [13, 4]</text>
<text text-anchor="middle" x="361.0347" y="-119.4" font-family="Helvetica,sans-Serif" font-size="14.00" fill="#000000">class = False</text>
</g>
<!-- 2&#45;&gt;6 -->
<g id="edge6" class="edge">
<title>2-&gt;6</title>
<path fill="none" stroke="#000000" d="M361.0347,-238.9891C361.0347,-230.7417 361.0347,-222.0661 361.0347,-213.5724"/>
<polygon fill="#000000" stroke="#000000" points="364.5348,-213.3431 361.0347,-203.3431 357.5348,-213.3431 364.5348,-213.3431"/>
</g>
<!-- 4 -->
<g id="node5" class="node">
<title>4</title>
<path fill="#ffffff" stroke="#000000" d="M86.1041,-75.3003C86.1041,-75.3003 11.9653,-75.3003 11.9653,-75.3003 5.9653,-75.3003 -.0347,-69.3003 -.0347,-63.3003 -.0347,-63.3003 -.0347,-11.8997 -.0347,-11.8997 -.0347,-5.8997 5.9653,.1003 11.9653,.1003 11.9653,.1003 86.1041,.1003 86.1041,.1003 92.1041,.1003 98.1041,-5.8997 98.1041,-11.8997 98.1041,-11.8997 98.1041,-63.3003 98.1041,-63.3003 98.1041,-69.3003 92.1041,-75.3003 86.1041,-75.3003"/>
<text text-anchor="middle" x="49.0347" y="-58.6" font-family="Helvetica,sans-Serif" font-size="14.00" fill="#000000">gini = 0.5</text>
<text text-anchor="middle" x="49.0347" y="-41.8" font-family="Helvetica,sans-Serif" font-size="14.00" fill="#000000">samples = 2</text>
<text text-anchor="middle" x="49.0347" y="-25" font-family="Helvetica,sans-Serif" font-size="14.00" fill="#000000">value = [1, 1]</text>
<text text-anchor="middle" x="49.0347" y="-8.2" font-family="Helvetica,sans-Serif" font-size="14.00" fill="#000000">class = False</text>
</g>
<!-- 3&#45;&gt;4 -->
<g id="edge4" class="edge">
<title>3-&gt;4</title>
<path fill="none" stroke="#000000" d="M122.0262,-110.9595C112.7369,-101.6233 102.9844,-91.8217 93.7406,-82.5313"/>
<polygon fill="#000000" stroke="#000000" points="95.9892,-79.829 86.4549,-75.2088 91.027,-84.7663 95.9892,-79.829"/>
</g>
<!-- 5 -->
<g id="node6" class="node">
<title>5</title>
<path fill="#399de5" stroke="#000000" d="M208.3556,-75.3003C208.3556,-75.3003 127.7138,-75.3003 127.7138,-75.3003 121.7138,-75.3003 115.7138,-69.3003 115.7138,-63.3003 115.7138,-63.3003 115.7138,-11.8997 115.7138,-11.8997 115.7138,-5.8997 121.7138,.1003 127.7138,.1003 127.7138,.1003 208.3556,.1003 208.3556,.1003 214.3556,.1003 220.3556,-5.8997 220.3556,-11.8997 220.3556,-11.8997 220.3556,-63.3003 220.3556,-63.3003 220.3556,-69.3003 214.3556,-75.3003 208.3556,-75.3003"/>
<text text-anchor="middle" x="168.0347" y="-58.6" font-family="Helvetica,sans-Serif" font-size="14.00" fill="#000000">gini = 0.0</text>
<text text-anchor="middle" x="168.0347" y="-41.8" font-family="Helvetica,sans-Serif" font-size="14.00" fill="#000000">samples = 16</text>
<text text-anchor="middle" x="168.0347" y="-25" font-family="Helvetica,sans-Serif" font-size="14.00" fill="#000000">value = [0, 16]</text>
<text text-anchor="middle" x="168.0347" y="-8.2" font-family="Helvetica,sans-Serif" font-size="14.00" fill="#000000">class = True</text>
</g>
<!-- 3&#45;&gt;5 -->
<g id="edge5" class="edge">
<title>3-&gt;5</title>
<path fill="none" stroke="#000000" d="M168.0347,-110.9595C168.0347,-102.5477 168.0347,-93.7581 168.0347,-85.3049"/>
<polygon fill="#000000" stroke="#000000" points="171.5348,-85.2088 168.0347,-75.2088 164.5348,-85.2089 171.5348,-85.2088"/>
</g>
<!-- 7 -->
<g id="node8" class="node">
<title>7</title>
<path fill="#e78b48" stroke="#000000" d="M330.3556,-75.3003C330.3556,-75.3003 249.7138,-75.3003 249.7138,-75.3003 243.7138,-75.3003 237.7138,-69.3003 237.7138,-63.3003 237.7138,-63.3003 237.7138,-11.8997 237.7138,-11.8997 237.7138,-5.8997 243.7138,.1003 249.7138,.1003 249.7138,.1003 330.3556,.1003 330.3556,.1003 336.3556,.1003 342.3556,-5.8997 342.3556,-11.8997 342.3556,-11.8997 342.3556,-63.3003 342.3556,-63.3003 342.3556,-69.3003 336.3556,-75.3003 330.3556,-75.3003"/>
<text text-anchor="middle" x="290.0347" y="-58.6" font-family="Helvetica,sans-Serif" font-size="14.00" fill="#000000">gini = 0.133</text>
<text text-anchor="middle" x="290.0347" y="-41.8" font-family="Helvetica,sans-Serif" font-size="14.00" fill="#000000">samples = 14</text>
<text text-anchor="middle" x="290.0347" y="-25" font-family="Helvetica,sans-Serif" font-size="14.00" fill="#000000">value = [13, 1]</text>
<text text-anchor="middle" x="290.0347" y="-8.2" font-family="Helvetica,sans-Serif" font-size="14.00" fill="#000000">class = False</text>
</g>
<!-- 6&#45;&gt;7 -->
<g id="edge7" class="edge">
<title>6-&gt;7</title>
<path fill="none" stroke="#000000" d="M333.5842,-110.9595C328.3162,-102.0855 322.7986,-92.791 317.5292,-83.9147"/>
<polygon fill="#000000" stroke="#000000" points="320.4754,-82.0211 312.361,-75.2088 314.4561,-85.5945 320.4754,-82.0211"/>
</g>
<!-- 8 -->
<g id="node9" class="node">
<title>8</title>
<path fill="#399de5" stroke="#000000" d="M444.0736,-75.3003C444.0736,-75.3003 371.9958,-75.3003 371.9958,-75.3003 365.9958,-75.3003 359.9958,-69.3003 359.9958,-63.3003 359.9958,-63.3003 359.9958,-11.8997 359.9958,-11.8997 359.9958,-5.8997 365.9958,.1003 371.9958,.1003 371.9958,.1003 444.0736,.1003 444.0736,.1003 450.0736,.1003 456.0736,-5.8997 456.0736,-11.8997 456.0736,-11.8997 456.0736,-63.3003 456.0736,-63.3003 456.0736,-69.3003 450.0736,-75.3003 444.0736,-75.3003"/>
<text text-anchor="middle" x="408.0347" y="-58.6" font-family="Helvetica,sans-Serif" font-size="14.00" fill="#000000">gini = 0.0</text>
<text text-anchor="middle" x="408.0347" y="-41.8" font-family="Helvetica,sans-Serif" font-size="14.00" fill="#000000">samples = 3</text>
<text text-anchor="middle" x="408.0347" y="-25" font-family="Helvetica,sans-Serif" font-size="14.00" fill="#000000">value = [0, 3]</text>
<text text-anchor="middle" x="408.0347" y="-8.2" font-family="Helvetica,sans-Serif" font-size="14.00" fill="#000000">class = True</text>
</g>
<!-- 6&#45;&gt;8 -->
<g id="edge8" class="edge">
<title>6-&gt;8</title>
<path fill="none" stroke="#000000" d="M379.2061,-110.9595C382.5844,-102.3628 386.1178,-93.3715 389.5066,-84.748"/>
<polygon fill="#000000" stroke="#000000" points="392.8553,-85.7961 393.2553,-75.2088 386.3403,-83.2358 392.8553,-85.7961"/>
</g>
<!-- 10 -->
<g id="node11" class="node">
<title>10</title>
<path fill="#3d9fe6" stroke="#000000" d="M678.8112,-203.2C678.8112,-203.2 561.2582,-203.2 561.2582,-203.2 555.2582,-203.2 549.2582,-197.2 549.2582,-191.2 549.2582,-191.2 549.2582,-123.2 549.2582,-123.2 549.2582,-117.2 555.2582,-111.2 561.2582,-111.2 561.2582,-111.2 678.8112,-111.2 678.8112,-111.2 684.8112,-111.2 690.8112,-117.2 690.8112,-123.2 690.8112,-123.2 690.8112,-191.2 690.8112,-191.2 690.8112,-197.2 684.8112,-203.2 678.8112,-203.2"/>
<text text-anchor="middle" x="620.0347" y="-186.6" font-family="Helvetica,sans-Serif" font-size="14.00" fill="#000000">bathrooms &lt;= 2.625</text>
<text text-anchor="middle" x="620.0347" y="-169.8" font-family="Helvetica,sans-Serif" font-size="14.00" fill="#000000">gini = 0.04</text>
<text text-anchor="middle" x="620.0347" y="-153" font-family="Helvetica,sans-Serif" font-size="14.00" fill="#000000">samples = 49</text>
<text text-anchor="middle" x="620.0347" y="-136.2" font-family="Helvetica,sans-Serif" font-size="14.00" fill="#000000">value = [1, 48]</text>
<text text-anchor="middle" x="620.0347" y="-119.4" font-family="Helvetica,sans-Serif" font-size="14.00" fill="#000000">class = True</text>
</g>
<!-- 9&#45;&gt;10 -->
<g id="edge10" class="edge">
<title>9-&gt;10</title>
<path fill="none" stroke="#000000" d="M672.4308,-238.9891C666.799,-230.1979 660.8555,-220.9202 655.0736,-211.8949"/>
<polygon fill="#000000" stroke="#000000" points="657.9366,-209.8754 649.5951,-203.3431 652.0423,-213.6515 657.9366,-209.8754"/>
</g>
<!-- 13 -->
<g id="node14" class="node">
<title>13</title>
<path fill="#ffffff" stroke="#000000" d="M847.9461,-203.2C847.9461,-203.2 720.1233,-203.2 720.1233,-203.2 714.1233,-203.2 708.1233,-197.2 708.1233,-191.2 708.1233,-191.2 708.1233,-123.2 708.1233,-123.2 708.1233,-117.2 714.1233,-111.2 720.1233,-111.2 720.1233,-111.2 847.9461,-111.2 847.9461,-111.2 853.9461,-111.2 859.9461,-117.2 859.9461,-123.2 859.9461,-123.2 859.9461,-191.2 859.9461,-191.2 859.9461,-197.2 853.9461,-203.2 847.9461,-203.2"/>
<text text-anchor="middle" x="784.0347" y="-186.6" font-family="Helvetica,sans-Serif" font-size="14.00" fill="#000000">sqft_above &lt;= 1920.0</text>
<text text-anchor="middle" x="784.0347" y="-169.8" font-family="Helvetica,sans-Serif" font-size="14.00" fill="#000000">gini = 0.5</text>
<text text-anchor="middle" x="784.0347" y="-153" font-family="Helvetica,sans-Serif" font-size="14.00" fill="#000000">samples = 2</text>
<text text-anchor="middle" x="784.0347" y="-136.2" font-family="Helvetica,sans-Serif" font-size="14.00" fill="#000000">value = [1, 1]</text>
<text text-anchor="middle" x="784.0347" y="-119.4" font-family="Helvetica,sans-Serif" font-size="14.00" fill="#000000">class = False</text>
</g>
<!-- 9&#45;&gt;13 -->
<g id="edge13" class="edge">
<title>9-&gt;13</title>
<path fill="none" stroke="#000000" d="M731.6386,-238.9891C737.2704,-230.1979 743.2139,-220.9202 748.9958,-211.8949"/>
<polygon fill="#000000" stroke="#000000" points="752.0271,-213.6515 754.4743,-203.3431 746.1328,-209.8754 752.0271,-213.6515"/>
</g>
<!-- 11 -->
<g id="node12" class="node">
<title>11</title>
<path fill="#399de5" stroke="#000000" d="M566.3556,-75.3003C566.3556,-75.3003 485.7138,-75.3003 485.7138,-75.3003 479.7138,-75.3003 473.7138,-69.3003 473.7138,-63.3003 473.7138,-63.3003 473.7138,-11.8997 473.7138,-11.8997 473.7138,-5.8997 479.7138,.1003 485.7138,.1003 485.7138,.1003 566.3556,.1003 566.3556,.1003 572.3556,.1003 578.3556,-5.8997 578.3556,-11.8997 578.3556,-11.8997 578.3556,-63.3003 578.3556,-63.3003 578.3556,-69.3003 572.3556,-75.3003 566.3556,-75.3003"/>
<text text-anchor="middle" x="526.0347" y="-58.6" font-family="Helvetica,sans-Serif" font-size="14.00" fill="#000000">gini = 0.0</text>
<text text-anchor="middle" x="526.0347" y="-41.8" font-family="Helvetica,sans-Serif" font-size="14.00" fill="#000000">samples = 43</text>
<text text-anchor="middle" x="526.0347" y="-25" font-family="Helvetica,sans-Serif" font-size="14.00" fill="#000000">value = [0, 43]</text>
<text text-anchor="middle" x="526.0347" y="-8.2" font-family="Helvetica,sans-Serif" font-size="14.00" fill="#000000">class = True</text>
</g>
<!-- 10&#45;&gt;11 -->
<g id="edge11" class="edge">
<title>10-&gt;11</title>
<path fill="none" stroke="#000000" d="M583.6918,-110.9595C576.4994,-101.8082 568.9554,-92.2097 561.7828,-83.0838"/>
<polygon fill="#000000" stroke="#000000" points="564.5247,-80.9083 555.5935,-75.2088 559.0211,-85.2339 564.5247,-80.9083"/>
</g>
<!-- 12 -->
<g id="node13" class="node">
<title>12</title>
<path fill="#61b1ea" stroke="#000000" d="M680.0736,-75.3003C680.0736,-75.3003 607.9958,-75.3003 607.9958,-75.3003 601.9958,-75.3003 595.9958,-69.3003 595.9958,-63.3003 595.9958,-63.3003 595.9958,-11.8997 595.9958,-11.8997 595.9958,-5.8997 601.9958,.1003 607.9958,.1003 607.9958,.1003 680.0736,.1003 680.0736,.1003 686.0736,.1003 692.0736,-5.8997 692.0736,-11.8997 692.0736,-11.8997 692.0736,-63.3003 692.0736,-63.3003 692.0736,-69.3003 686.0736,-75.3003 680.0736,-75.3003"/>
<text text-anchor="middle" x="644.0347" y="-58.6" font-family="Helvetica,sans-Serif" font-size="14.00" fill="#000000">gini = 0.278</text>
<text text-anchor="middle" x="644.0347" y="-41.8" font-family="Helvetica,sans-Serif" font-size="14.00" fill="#000000">samples = 6</text>
<text text-anchor="middle" x="644.0347" y="-25" font-family="Helvetica,sans-Serif" font-size="14.00" fill="#000000">value = [1, 5]</text>
<text text-anchor="middle" x="644.0347" y="-8.2" font-family="Helvetica,sans-Serif" font-size="14.00" fill="#000000">class = True</text>
</g>
<!-- 10&#45;&gt;12 -->
<g id="edge12" class="edge">
<title>10-&gt;12</title>
<path fill="none" stroke="#000000" d="M629.3137,-110.9595C631.0203,-102.4553 632.8043,-93.5648 634.5177,-85.0264"/>
<polygon fill="#000000" stroke="#000000" points="637.9518,-85.702 636.4878,-75.2088 631.0886,-84.3247 637.9518,-85.702"/>
</g>
<!-- 14 -->
<g id="node15" class="node">
<title>14</title>
<path fill="#e58139" stroke="#000000" d="M796.1041,-75.3003C796.1041,-75.3003 721.9653,-75.3003 721.9653,-75.3003 715.9653,-75.3003 709.9653,-69.3003 709.9653,-63.3003 709.9653,-63.3003 709.9653,-11.8997 709.9653,-11.8997 709.9653,-5.8997 715.9653,.1003 721.9653,.1003 721.9653,.1003 796.1041,.1003 796.1041,.1003 802.1041,.1003 808.1041,-5.8997 808.1041,-11.8997 808.1041,-11.8997 808.1041,-63.3003 808.1041,-63.3003 808.1041,-69.3003 802.1041,-75.3003 796.1041,-75.3003"/>
<text text-anchor="middle" x="759.0347" y="-58.6" font-family="Helvetica,sans-Serif" font-size="14.00" fill="#000000">gini = 0.0</text>
<text text-anchor="middle" x="759.0347" y="-41.8" font-family="Helvetica,sans-Serif" font-size="14.00" fill="#000000">samples = 1</text>
<text text-anchor="middle" x="759.0347" y="-25" font-family="Helvetica,sans-Serif" font-size="14.00" fill="#000000">value = [1, 0]</text>
<text text-anchor="middle" x="759.0347" y="-8.2" font-family="Helvetica,sans-Serif" font-size="14.00" fill="#000000">class = False</text>
</g>
<!-- 13&#45;&gt;14 -->
<g id="edge14" class="edge">
<title>13-&gt;14</title>
<path fill="none" stroke="#000000" d="M774.369,-110.9595C772.5914,-102.4553 770.733,-93.5648 768.9482,-85.0264"/>
<polygon fill="#000000" stroke="#000000" points="772.3682,-84.2811 766.8961,-75.2088 765.5163,-85.7134 772.3682,-84.2811"/>
</g>
<!-- 15 -->
<g id="node16" class="node">
<title>15</title>
<path fill="#399de5" stroke="#000000" d="M910.0736,-75.3003C910.0736,-75.3003 837.9958,-75.3003 837.9958,-75.3003 831.9958,-75.3003 825.9958,-69.3003 825.9958,-63.3003 825.9958,-63.3003 825.9958,-11.8997 825.9958,-11.8997 825.9958,-5.8997 831.9958,.1003 837.9958,.1003 837.9958,.1003 910.0736,.1003 910.0736,.1003 916.0736,.1003 922.0736,-5.8997 922.0736,-11.8997 922.0736,-11.8997 922.0736,-63.3003 922.0736,-63.3003 922.0736,-69.3003 916.0736,-75.3003 910.0736,-75.3003"/>
<text text-anchor="middle" x="874.0347" y="-58.6" font-family="Helvetica,sans-Serif" font-size="14.00" fill="#000000">gini = 0.0</text>
<text text-anchor="middle" x="874.0347" y="-41.8" font-family="Helvetica,sans-Serif" font-size="14.00" fill="#000000">samples = 1</text>
<text text-anchor="middle" x="874.0347" y="-25" font-family="Helvetica,sans-Serif" font-size="14.00" fill="#000000">value = [0, 1]</text>
<text text-anchor="middle" x="874.0347" y="-8.2" font-family="Helvetica,sans-Serif" font-size="14.00" fill="#000000">class = True</text>
</g>
<!-- 13&#45;&gt;15 -->
<g id="edge15" class="edge">
<title>13-&gt;15</title>
<path fill="none" stroke="#000000" d="M818.831,-110.9595C825.6479,-101.9007 832.7946,-92.4036 839.5996,-83.3605"/>
<polygon fill="#000000" stroke="#000000" points="842.5175,-85.3037 845.7337,-75.2088 836.9243,-81.0947 842.5175,-85.3037"/>
</g>
<!-- 17 -->
<g id="node18" class="node">
<title>17</title>
<path fill="#e9965a" stroke="#000000" d="M1134.9461,-331.2C1134.9461,-331.2 1007.1233,-331.2 1007.1233,-331.2 1001.1233,-331.2 995.1233,-325.2 995.1233,-319.2 995.1233,-319.2 995.1233,-251.2 995.1233,-251.2 995.1233,-245.2 1001.1233,-239.2 1007.1233,-239.2 1007.1233,-239.2 1134.9461,-239.2 1134.9461,-239.2 1140.9461,-239.2 1146.9461,-245.2 1146.9461,-251.2 1146.9461,-251.2 1146.9461,-319.2 1146.9461,-319.2 1146.9461,-325.2 1140.9461,-331.2 1134.9461,-331.2"/>
<text text-anchor="middle" x="1071.0347" y="-314.6" font-family="Helvetica,sans-Serif" font-size="14.00" fill="#000000">sqft_above &lt;= 2330.0</text>
<text text-anchor="middle" x="1071.0347" y="-297.8" font-family="Helvetica,sans-Serif" font-size="14.00" fill="#000000">gini = 0.245</text>
<text text-anchor="middle" x="1071.0347" y="-281" font-family="Helvetica,sans-Serif" font-size="14.00" fill="#000000">samples = 70</text>
<text text-anchor="middle" x="1071.0347" y="-264.2" font-family="Helvetica,sans-Serif" font-size="14.00" fill="#000000">value = [60, 10]</text>
<text text-anchor="middle" x="1071.0347" y="-247.4" font-family="Helvetica,sans-Serif" font-size="14.00" fill="#000000">class = False</text>
</g>
<!-- 16&#45;&gt;17 -->
<g id="edge17" class="edge">
<title>16-&gt;17</title>
<path fill="none" stroke="#000000" d="M1071.0347,-366.9891C1071.0347,-358.7417 1071.0347,-350.0661 1071.0347,-341.5724"/>
<polygon fill="#000000" stroke="#000000" points="1074.5348,-341.3431 1071.0347,-331.3431 1067.5348,-341.3431 1074.5348,-341.3431"/>
</g>
<!-- 22 -->
<g id="node23" class="node">
<title>22</title>
<path fill="#fcf2ea" stroke="#000000" d="M1358.7002,-331.2C1358.7002,-331.2 1237.3692,-331.2 1237.3692,-331.2 1231.3692,-331.2 1225.3692,-325.2 1225.3692,-319.2 1225.3692,-319.2 1225.3692,-251.2 1225.3692,-251.2 1225.3692,-245.2 1231.3692,-239.2 1237.3692,-239.2 1237.3692,-239.2 1358.7002,-239.2 1358.7002,-239.2 1364.7002,-239.2 1370.7002,-245.2 1370.7002,-251.2 1370.7002,-251.2 1370.7002,-319.2 1370.7002,-319.2 1370.7002,-325.2 1364.7002,-331.2 1358.7002,-331.2"/>
<text text-anchor="middle" x="1298.0347" y="-314.6" font-family="Helvetica,sans-Serif" font-size="14.00" fill="#000000">sqft_living &lt;= 3025.0</text>
<text text-anchor="middle" x="1298.0347" y="-297.8" font-family="Helvetica,sans-Serif" font-size="14.00" fill="#000000">gini = 0.498</text>
<text text-anchor="middle" x="1298.0347" y="-281" font-family="Helvetica,sans-Serif" font-size="14.00" fill="#000000">samples = 144</text>
<text text-anchor="middle" x="1298.0347" y="-264.2" font-family="Helvetica,sans-Serif" font-size="14.00" fill="#000000">value = [76, 68]</text>
<text text-anchor="middle" x="1298.0347" y="-247.4" font-family="Helvetica,sans-Serif" font-size="14.00" fill="#000000">class = False</text>
</g>
<!-- 16&#45;&gt;22 -->
<g id="edge22" class="edge">
<title>16-&gt;22</title>
<path fill="none" stroke="#000000" d="M1130.9732,-379.4021C1157.0491,-364.6985 1188.019,-347.2353 1216.1678,-331.3628"/>
<polygon fill="#000000" stroke="#000000" points="1218.2066,-334.2314 1225.1981,-326.2709 1214.7683,-328.1339 1218.2066,-334.2314"/>
</g>
<!-- 18 -->
<g id="node19" class="node">
<title>18</title>
<path fill="#f4cbad" stroke="#000000" d="M1056.3664,-203.2C1056.3664,-203.2 951.703,-203.2 951.703,-203.2 945.703,-203.2 939.703,-197.2 939.703,-191.2 939.703,-191.2 939.703,-123.2 939.703,-123.2 939.703,-117.2 945.703,-111.2 951.703,-111.2 951.703,-111.2 1056.3664,-111.2 1056.3664,-111.2 1062.3664,-111.2 1068.3664,-117.2 1068.3664,-123.2 1068.3664,-123.2 1068.3664,-191.2 1068.3664,-191.2 1068.3664,-197.2 1062.3664,-203.2 1056.3664,-203.2"/>
<text text-anchor="middle" x="1004.0347" y="-186.6" font-family="Helvetica,sans-Serif" font-size="14.00" fill="#000000">price &lt;= 464950.0</text>
<text text-anchor="middle" x="1004.0347" y="-169.8" font-family="Helvetica,sans-Serif" font-size="14.00" fill="#000000">gini = 0.466</text>
<text text-anchor="middle" x="1004.0347" y="-153" font-family="Helvetica,sans-Serif" font-size="14.00" fill="#000000">samples = 27</text>
<text text-anchor="middle" x="1004.0347" y="-136.2" font-family="Helvetica,sans-Serif" font-size="14.00" fill="#000000">value = [17, 10]</text>
<text text-anchor="middle" x="1004.0347" y="-119.4" font-family="Helvetica,sans-Serif" font-size="14.00" fill="#000000">class = False</text>
</g>
<!-- 17&#45;&gt;18 -->
<g id="edge18" class="edge">
<title>17-&gt;18</title>
<path fill="none" stroke="#000000" d="M1046.8462,-238.9891C1042.3394,-230.3791 1037.5884,-221.3026 1032.9564,-212.4535"/>
<polygon fill="#000000" stroke="#000000" points="1035.9262,-210.5796 1028.1877,-203.3431 1029.7244,-213.8259 1035.9262,-210.5796"/>
</g>
<!-- 21 -->
<g id="node22" class="node">
<title>21</title>
<path fill="#e58139" stroke="#000000" d="M1179.3556,-194.9003C1179.3556,-194.9003 1098.7138,-194.9003 1098.7138,-194.9003 1092.7138,-194.9003 1086.7138,-188.9003 1086.7138,-182.9003 1086.7138,-182.9003 1086.7138,-131.4997 1086.7138,-131.4997 1086.7138,-125.4997 1092.7138,-119.4997 1098.7138,-119.4997 1098.7138,-119.4997 1179.3556,-119.4997 1179.3556,-119.4997 1185.3556,-119.4997 1191.3556,-125.4997 1191.3556,-131.4997 1191.3556,-131.4997 1191.3556,-182.9003 1191.3556,-182.9003 1191.3556,-188.9003 1185.3556,-194.9003 1179.3556,-194.9003"/>
<text text-anchor="middle" x="1139.0347" y="-178.2" font-family="Helvetica,sans-Serif" font-size="14.00" fill="#000000">gini = 0.0</text>
<text text-anchor="middle" x="1139.0347" y="-161.4" font-family="Helvetica,sans-Serif" font-size="14.00" fill="#000000">samples = 43</text>
<text text-anchor="middle" x="1139.0347" y="-144.6" font-family="Helvetica,sans-Serif" font-size="14.00" fill="#000000">value = [43, 0]</text>
<text text-anchor="middle" x="1139.0347" y="-127.8" font-family="Helvetica,sans-Serif" font-size="14.00" fill="#000000">class = False</text>
</g>
<!-- 17&#45;&gt;21 -->
<g id="edge21" class="edge">
<title>17-&gt;21</title>
<path fill="none" stroke="#000000" d="M1095.5843,-238.9891C1101.6479,-227.5752 1108.1471,-215.3413 1114.2231,-203.9042"/>
<polygon fill="#000000" stroke="#000000" points="1117.3881,-205.4067 1118.9888,-194.9335 1111.2063,-202.1226 1117.3881,-205.4067"/>
</g>
<!-- 19 -->
<g id="node20" class="node">
<title>19</title>
<path fill="#ea995e" stroke="#000000" d="M1032.3556,-75.3003C1032.3556,-75.3003 951.7138,-75.3003 951.7138,-75.3003 945.7138,-75.3003 939.7138,-69.3003 939.7138,-63.3003 939.7138,-63.3003 939.7138,-11.8997 939.7138,-11.8997 939.7138,-5.8997 945.7138,.1003 951.7138,.1003 951.7138,.1003 1032.3556,.1003 1032.3556,.1003 1038.3556,.1003 1044.3556,-5.8997 1044.3556,-11.8997 1044.3556,-11.8997 1044.3556,-63.3003 1044.3556,-63.3003 1044.3556,-69.3003 1038.3556,-75.3003 1032.3556,-75.3003"/>
<text text-anchor="middle" x="992.0347" y="-58.6" font-family="Helvetica,sans-Serif" font-size="14.00" fill="#000000">gini = 0.266</text>
<text text-anchor="middle" x="992.0347" y="-41.8" font-family="Helvetica,sans-Serif" font-size="14.00" fill="#000000">samples = 19</text>
<text text-anchor="middle" x="992.0347" y="-25" font-family="Helvetica,sans-Serif" font-size="14.00" fill="#000000">value = [16, 3]</text>
<text text-anchor="middle" x="992.0347" y="-8.2" font-family="Helvetica,sans-Serif" font-size="14.00" fill="#000000">class = False</text>
</g>
<!-- 18&#45;&gt;19 -->
<g id="edge19" class="edge">
<title>18-&gt;19</title>
<path fill="none" stroke="#000000" d="M999.3952,-110.9595C998.5512,-102.5477 997.6693,-93.7581 996.8211,-85.3049"/>
<polygon fill="#000000" stroke="#000000" points="1000.2891,-84.8094 995.8082,-75.2088 993.3241,-85.5083 1000.2891,-84.8094"/>
</g>
<!-- 20 -->
<g id="node21" class="node">
<title>20</title>
<path fill="#55abe9" stroke="#000000" d="M1146.0736,-75.3003C1146.0736,-75.3003 1073.9958,-75.3003 1073.9958,-75.3003 1067.9958,-75.3003 1061.9958,-69.3003 1061.9958,-63.3003 1061.9958,-63.3003 1061.9958,-11.8997 1061.9958,-11.8997 1061.9958,-5.8997 1067.9958,.1003 1073.9958,.1003 1073.9958,.1003 1146.0736,.1003 1146.0736,.1003 1152.0736,.1003 1158.0736,-5.8997 1158.0736,-11.8997 1158.0736,-11.8997 1158.0736,-63.3003 1158.0736,-63.3003 1158.0736,-69.3003 1152.0736,-75.3003 1146.0736,-75.3003"/>
<text text-anchor="middle" x="1110.0347" y="-58.6" font-family="Helvetica,sans-Serif" font-size="14.00" fill="#000000">gini = 0.219</text>
<text text-anchor="middle" x="1110.0347" y="-41.8" font-family="Helvetica,sans-Serif" font-size="14.00" fill="#000000">samples = 8</text>
<text text-anchor="middle" x="1110.0347" y="-25" font-family="Helvetica,sans-Serif" font-size="14.00" fill="#000000">value = [1, 7]</text>
<text text-anchor="middle" x="1110.0347" y="-8.2" font-family="Helvetica,sans-Serif" font-size="14.00" fill="#000000">class = True</text>
</g>
<!-- 18&#45;&gt;20 -->
<g id="edge20" class="edge">
<title>18-&gt;20</title>
<path fill="none" stroke="#000000" d="M1045.0171,-110.9595C1053.2097,-101.7158 1061.8067,-92.0157 1069.9679,-82.8074"/>
<polygon fill="#000000" stroke="#000000" points="1072.689,-85.0141 1076.7025,-75.2088 1067.4504,-80.3711 1072.689,-85.0141"/>
</g>
<!-- 23 -->
<g id="node24" class="node">
<title>23</title>
<path fill="#85c3ef" stroke="#000000" d="M1361.9461,-203.2C1361.9461,-203.2 1234.1233,-203.2 1234.1233,-203.2 1228.1233,-203.2 1222.1233,-197.2 1222.1233,-191.2 1222.1233,-191.2 1222.1233,-123.2 1222.1233,-123.2 1222.1233,-117.2 1228.1233,-111.2 1234.1233,-111.2 1234.1233,-111.2 1361.9461,-111.2 1361.9461,-111.2 1367.9461,-111.2 1373.9461,-117.2 1373.9461,-123.2 1373.9461,-123.2 1373.9461,-191.2 1373.9461,-191.2 1373.9461,-197.2 1367.9461,-203.2 1361.9461,-203.2"/>
<text text-anchor="middle" x="1298.0347" y="-186.6" font-family="Helvetica,sans-Serif" font-size="14.00" fill="#000000">sqft_above &lt;= 2620.0</text>
<text text-anchor="middle" x="1298.0347" y="-169.8" font-family="Helvetica,sans-Serif" font-size="14.00" fill="#000000">gini = 0.4</text>
<text text-anchor="middle" x="1298.0347" y="-153" font-family="Helvetica,sans-Serif" font-size="14.00" fill="#000000">samples = 65</text>
<text text-anchor="middle" x="1298.0347" y="-136.2" font-family="Helvetica,sans-Serif" font-size="14.00" fill="#000000">value = [18, 47]</text>
<text text-anchor="middle" x="1298.0347" y="-119.4" font-family="Helvetica,sans-Serif" font-size="14.00" fill="#000000">class = True</text>
</g>
<!-- 22&#45;&gt;23 -->
<g id="edge23" class="edge">
<title>22-&gt;23</title>
<path fill="none" stroke="#000000" d="M1298.0347,-238.9891C1298.0347,-230.7417 1298.0347,-222.0661 1298.0347,-213.5724"/>
<polygon fill="#000000" stroke="#000000" points="1301.5348,-213.3431 1298.0347,-203.3431 1294.5348,-213.3431 1301.5348,-213.3431"/>
</g>
<!-- 26 -->
<g id="node27" class="node">
<title>26</title>
<path fill="#eeaf81" stroke="#000000" d="M1532.3664,-203.2C1532.3664,-203.2 1427.703,-203.2 1427.703,-203.2 1421.703,-203.2 1415.703,-197.2 1415.703,-191.2 1415.703,-191.2 1415.703,-123.2 1415.703,-123.2 1415.703,-117.2 1421.703,-111.2 1427.703,-111.2 1427.703,-111.2 1532.3664,-111.2 1532.3664,-111.2 1538.3664,-111.2 1544.3664,-117.2 1544.3664,-123.2 1544.3664,-123.2 1544.3664,-191.2 1544.3664,-191.2 1544.3664,-197.2 1538.3664,-203.2 1532.3664,-203.2"/>
<text text-anchor="middle" x="1480.0347" y="-186.6" font-family="Helvetica,sans-Serif" font-size="14.00" fill="#000000">price &lt;= 697094.0</text>
<text text-anchor="middle" x="1480.0347" y="-169.8" font-family="Helvetica,sans-Serif" font-size="14.00" fill="#000000">gini = 0.39</text>
<text text-anchor="middle" x="1480.0347" y="-153" font-family="Helvetica,sans-Serif" font-size="14.00" fill="#000000">samples = 79</text>
<text text-anchor="middle" x="1480.0347" y="-136.2" font-family="Helvetica,sans-Serif" font-size="14.00" fill="#000000">value = [58, 21]</text>
<text text-anchor="middle" x="1480.0347" y="-119.4" font-family="Helvetica,sans-Serif" font-size="14.00" fill="#000000">class = False</text>
</g>
<!-- 22&#45;&gt;26 -->
<g id="edge26" class="edge">
<title>22-&gt;26</title>
<path fill="none" stroke="#000000" d="M1363.4837,-239.1699C1377.6253,-229.2242 1392.6626,-218.6485 1407.0715,-208.5148"/>
<polygon fill="#000000" stroke="#000000" points="1409.3048,-211.223 1415.471,-202.6074 1405.2779,-205.4973 1409.3048,-211.223"/>
</g>
<!-- 24 -->
<g id="node25" class="node">
<title>24</title>
<path fill="#53aae8" stroke="#000000" d="M1268.3556,-75.3003C1268.3556,-75.3003 1187.7138,-75.3003 1187.7138,-75.3003 1181.7138,-75.3003 1175.7138,-69.3003 1175.7138,-63.3003 1175.7138,-63.3003 1175.7138,-11.8997 1175.7138,-11.8997 1175.7138,-5.8997 1181.7138,.1003 1187.7138,.1003 1187.7138,.1003 1268.3556,.1003 1268.3556,.1003 1274.3556,.1003 1280.3556,-5.8997 1280.3556,-11.8997 1280.3556,-11.8997 1280.3556,-63.3003 1280.3556,-63.3003 1280.3556,-69.3003 1274.3556,-75.3003 1268.3556,-75.3003"/>
<text text-anchor="middle" x="1228.0347" y="-58.6" font-family="Helvetica,sans-Serif" font-size="14.00" fill="#000000">gini = 0.208</text>
<text text-anchor="middle" x="1228.0347" y="-41.8" font-family="Helvetica,sans-Serif" font-size="14.00" fill="#000000">samples = 34</text>
<text text-anchor="middle" x="1228.0347" y="-25" font-family="Helvetica,sans-Serif" font-size="14.00" fill="#000000">value = [4, 30]</text>
<text text-anchor="middle" x="1228.0347" y="-8.2" font-family="Helvetica,sans-Serif" font-size="14.00" fill="#000000">class = True</text>
</g>
<!-- 23&#45;&gt;24 -->
<g id="edge24" class="edge">
<title>23-&gt;24</title>
<path fill="none" stroke="#000000" d="M1270.9709,-110.9595C1265.7771,-102.0855 1260.3371,-92.791 1255.142,-83.9147"/>
<polygon fill="#000000" stroke="#000000" points="1258.1185,-82.0713 1250.0466,-75.2088 1252.0772,-85.6073 1258.1185,-82.0713"/>
</g>
<!-- 25 -->
<g id="node26" class="node">
<title>25</title>
<path fill="#dceefa" stroke="#000000" d="M1398.1377,-75.3003C1398.1377,-75.3003 1309.9317,-75.3003 1309.9317,-75.3003 1303.9317,-75.3003 1297.9317,-69.3003 1297.9317,-63.3003 1297.9317,-63.3003 1297.9317,-11.8997 1297.9317,-11.8997 1297.9317,-5.8997 1303.9317,.1003 1309.9317,.1003 1309.9317,.1003 1398.1377,.1003 1398.1377,.1003 1404.1377,.1003 1410.1377,-5.8997 1410.1377,-11.8997 1410.1377,-11.8997 1410.1377,-63.3003 1410.1377,-63.3003 1410.1377,-69.3003 1404.1377,-75.3003 1398.1377,-75.3003"/>
<text text-anchor="middle" x="1354.0347" y="-58.6" font-family="Helvetica,sans-Serif" font-size="14.00" fill="#000000">gini = 0.495</text>
<text text-anchor="middle" x="1354.0347" y="-41.8" font-family="Helvetica,sans-Serif" font-size="14.00" fill="#000000">samples = 31</text>
<text text-anchor="middle" x="1354.0347" y="-25" font-family="Helvetica,sans-Serif" font-size="14.00" fill="#000000">value = [14, 17]</text>
<text text-anchor="middle" x="1354.0347" y="-8.2" font-family="Helvetica,sans-Serif" font-size="14.00" fill="#000000">class = True</text>
</g>
<!-- 23&#45;&gt;25 -->
<g id="edge25" class="edge">
<title>23-&gt;25</title>
<path fill="none" stroke="#000000" d="M1319.6858,-110.9595C1323.7542,-102.2704 1328.0115,-93.1781 1332.0889,-84.47"/>
<polygon fill="#000000" stroke="#000000" points="1335.3544,-85.7494 1336.4252,-75.2088 1329.015,-82.7811 1335.3544,-85.7494"/>
</g>
<!-- 27 -->
<g id="node28" class="node">
<title>27</title>
<path fill="#e78a48" stroke="#000000" d="M1520.3556,-75.3003C1520.3556,-75.3003 1439.7138,-75.3003 1439.7138,-75.3003 1433.7138,-75.3003 1427.7138,-69.3003 1427.7138,-63.3003 1427.7138,-63.3003 1427.7138,-11.8997 1427.7138,-11.8997 1427.7138,-5.8997 1433.7138,.1003 1439.7138,.1003 1439.7138,.1003 1520.3556,.1003 1520.3556,.1003 1526.3556,.1003 1532.3556,-5.8997 1532.3556,-11.8997 1532.3556,-11.8997 1532.3556,-63.3003 1532.3556,-63.3003 1532.3556,-69.3003 1526.3556,-75.3003 1520.3556,-75.3003"/>
<text text-anchor="middle" x="1480.0347" y="-58.6" font-family="Helvetica,sans-Serif" font-size="14.00" fill="#000000">gini = 0.13</text>
<text text-anchor="middle" x="1480.0347" y="-41.8" font-family="Helvetica,sans-Serif" font-size="14.00" fill="#000000">samples = 43</text>
<text text-anchor="middle" x="1480.0347" y="-25" font-family="Helvetica,sans-Serif" font-size="14.00" fill="#000000">value = [40, 3]</text>
<text text-anchor="middle" x="1480.0347" y="-8.2" font-family="Helvetica,sans-Serif" font-size="14.00" fill="#000000">class = False</text>
</g>
<!-- 26&#45;&gt;27 -->
<g id="edge27" class="edge">
<title>26-&gt;27</title>
<path fill="none" stroke="#000000" d="M1480.0347,-110.9595C1480.0347,-102.5477 1480.0347,-93.7581 1480.0347,-85.3049"/>
<polygon fill="#000000" stroke="#000000" points="1483.5348,-85.2088 1480.0347,-75.2088 1476.5348,-85.2089 1483.5348,-85.2088"/>
</g>
<!-- 28 -->
<g id="node29" class="node">
<title>28</title>
<path fill="#ffffff" stroke="#000000" d="M1650.1377,-75.3003C1650.1377,-75.3003 1561.9317,-75.3003 1561.9317,-75.3003 1555.9317,-75.3003 1549.9317,-69.3003 1549.9317,-63.3003 1549.9317,-63.3003 1549.9317,-11.8997 1549.9317,-11.8997 1549.9317,-5.8997 1555.9317,.1003 1561.9317,.1003 1561.9317,.1003 1650.1377,.1003 1650.1377,.1003 1656.1377,.1003 1662.1377,-5.8997 1662.1377,-11.8997 1662.1377,-11.8997 1662.1377,-63.3003 1662.1377,-63.3003 1662.1377,-69.3003 1656.1377,-75.3003 1650.1377,-75.3003"/>
<text text-anchor="middle" x="1606.0347" y="-58.6" font-family="Helvetica,sans-Serif" font-size="14.00" fill="#000000">gini = 0.5</text>
<text text-anchor="middle" x="1606.0347" y="-41.8" font-family="Helvetica,sans-Serif" font-size="14.00" fill="#000000">samples = 36</text>
<text text-anchor="middle" x="1606.0347" y="-25" font-family="Helvetica,sans-Serif" font-size="14.00" fill="#000000">value = [18, 18]</text>
<text text-anchor="middle" x="1606.0347" y="-8.2" font-family="Helvetica,sans-Serif" font-size="14.00" fill="#000000">class = False</text>
</g>
<!-- 26&#45;&gt;28 -->
<g id="edge28" class="edge">
<title>26-&gt;28</title>
<path fill="none" stroke="#000000" d="M1528.7496,-110.9595C1538.6827,-101.5309 1549.116,-91.6276 1558.9896,-82.2555"/>
<polygon fill="#000000" stroke="#000000" points="1561.57,-84.6318 1566.4134,-75.2088 1556.7509,-79.5548 1561.57,-84.6318"/>
</g>
</g>
</svg>